 <svg version="1.0" xmlns="http://www.w3.org/2000/svg" width="700.000000pt" height="700.000000pt" viewBox="0 0 700.000000 700.000000" preserveAspectRatio="xMidYMid meet">
<metadata>
Created by potrace 1.12, written by Peter Selinger 2001-2015
</metadata>
<g transform="translate(0.000000,700.000000) scale(0.100000,-0.100000)" fill="#000000" stroke="none">
<path d="M0 3510 l0 -3490 3500 0 3500 0 0 3490 0 3490 -3500 0 -3500 0 0
-3490z m6204 2724 c15 -6 16 -254 16 -2715 0 -2667 0 -2708 -19 -2719 -14 -7
-872 -10 -2701 -10 -1829 0 -2687 3 -2701 10 -19 11 -19 52 -19 2720 0 2157 3
2709 13 2713 18 8 5392 8 5411 1z"></path>
<path d="M2732 4668 c-19 -19 -17 -2681 2 -2697 9 -8 125 -12 384 -14 364 -2
371 -2 376 18 3 11 6 377 6 813 0 753 1 795 19 847 37 105 141 209 246 246 68
24 174 25 241 2 139 -46 264 -200 264 -324 l0 -39 393 2 c276 2 391 6 390 14
-1 6 -7 55 -13 110 -9 88 -19 130 -64 279 -11 36 -23 62 -68 145 -53 97 -164
241 -242 313 -48 44 -176 132 -260 177 -60 32 -152 63 -286 96 -109 27 -380
24 -500 -5 -107 -26 -109 -26 -120 4 l-10 25 -373 0 c-277 0 -376 -3 -385 -12z"></path>
</g>
</svg>