<svg xmlns="http://www.w3.org/2000/svg" xmlns:xlink="http://www.w3.org/1999/xlink" width="389" height="70" viewBox="0 0 389 70">
    <defs>
        <path id="a" d="M0 .645h48.447v37.56H0z"/>
        <path id="c" d="M0 69.49h389.699V.828H0z"/>
    </defs>
    <g fill="none" fill-rule="evenodd">
        <path fill="#FEFEFE" d="M175.532 19.604c5.684 0 7.543-3.701 7.543-6.75 0-3.045-1.802-6.694-7.543-6.694H148.85v13.444h26.683zM142.834.827h32.258c9.133 0 14.164 4.462 14.164 11.377 0 5.332-3.01 8.706-8.04 10.014 4.867 1.415 5.587 5.474 7.109 8.707a57.207 57.207 0 0 0 4.047 7.13h-6.233s-2.34-3.445-3.76-7.106c-1.181-3.037-2.201-6.01-7.504-6.01H148.85v13.116h-6.015V.827z"/>
        <mask id="b" fill="#fff">
            <use xlink:href="#a"/>
        </mask>
        <path fill="#FEFEFE" d="M30.582 6.522H6.029v25.754h24.553c9.588 0 11.672-4.393 11.672-12.848 0-8.403-2.084-12.906-11.672-12.906zM0 .645h30.582c13.044 0 17.865 6.37 17.865 18.783 0 12.52-4.878 18.778-17.865 18.778H0V.646z" mask="url(#b)"/>
        <mask id="d" fill="#fff">
            <use xlink:href="#c"/>
        </mask>
        <path fill="#FEFEFE" d="M308.787 38.055h5.779V.827h-5.78zM347.06 38.055h-6.074V.827h4.596c9.526 0 12.151 3.211 22.223 16.819 9.523 12.898 10.62 14.368 15.545 14.368h.274V.827h6.075v37.228h-4.596c-8.924 0-11.605-2.992-22.115-16.763-10.125-13.174-10.892-14.368-15.655-14.368h-.273v31.13zM266.347 33.14L278.475.827h6.368l-13.746 38.055h-5.799c-2.243 0-3.229-1.168-4.159-2.28l-12.628-23.654L235.828 36.6c-.876 1.057-1.916 2.28-4.158 2.28h-5.8L212.187.828h6.374l12.023 32.374 15.187-26.318h5.514l15.06 26.257zM85.108 23.14l9.427-15.817 9.427 15.817H85.108zm28.236 15.742h7.198L100.326 4.734s-1.372-3.071-4.256-3.071c-.479 0-.736-.008-1.535-.008-.851 0-.946.008-1.485.008-2.9 0-4.3 3.065-4.3 3.065L68.527 38.882h7.198l6.328-10.617h24.962l6.328 10.617zM37.153 58.736h3.16v4.106h3.603v-4.106h3.145v10.755h-3.145v-4.242h-3.603v4.242h-3.16zM59.48 64.135v-.117c0-1.853-.976-2.947-2.519-2.947-1.543 0-2.504 1.065-2.504 2.962v.118c0 1.896 1.008 2.991 2.52 2.991 1.542 0 2.504-1.139 2.504-3.007m-8.292.03v-.117c0-3.182 2.505-5.312 5.772-5.312 3.33 0 5.787 2 5.787 5.24v.115c0 3.21-2.306 5.4-5.833 5.4s-5.726-2.19-5.726-5.327M66.876 58.736h3.844l1.972 5.731 1.972-5.73h3.771V69.49H75.5v-6.694l-2.52 6.694h-.978l-2.49-6.694v6.694h-2.635zM83.389 58.736h7.198v2.377H86.36v1.85h3.366v2.196h-3.366v1.955h4.459v2.377h-7.431zM100.727 58.736h3.002l1.334 6.708 1.392-6.708h2.639l1.508 6.77 1.406-6.77h2.755l-2.422 10.755h-3.102l-1.595-6.83-1.61 6.83h-2.9zM119.717 58.736h7.197v2.377h-4.225v1.85h3.366v2.196h-3.366v1.955h4.458v2.377h-7.43zM131.276 58.736h3.215V67.1h4.215v2.392h-7.43zM142.834 58.736h3.216V67.1h4.215v2.392h-7.43zM154.393 58.736h3.583l3.55 6.062v-6.062h2.775v10.755h-3.07l-4.047-6.754v6.754h-2.79zM169.255 58.736h7.197v2.377h-4.225v1.85h3.366v2.196h-3.366v1.955h4.458v2.377h-7.43zM180.814 66.003h2.971c.076.745.427 1.357 1.722 1.357.9 0 1.402-.424 1.402-1.036 0-.642-.412-.816-1.722-1.007-3.078-.35-4.114-1.225-4.114-3.327 0-1.882 1.615-3.254 4.22-3.254 2.622 0 4.1 1.05 4.298 3.254h-2.895c-.107-.744-.549-1.124-1.403-1.124-.838 0-1.264.365-1.264.89 0 .584.335.848 1.692 1.022 2.758.293 4.175.978 4.175 3.24 0 1.911-1.585 3.473-4.389 3.473-3.047 0-4.602-1.226-4.693-3.488M193.198 66.003h2.972c.076.745.426 1.357 1.722 1.357.899 0 1.401-.424 1.401-1.036 0-.642-.411-.816-1.722-1.007-3.077-.35-4.114-1.225-4.114-3.327 0-1.882 1.616-3.254 4.22-3.254 2.623 0 4.1 1.05 4.3 3.254h-2.897c-.107-.744-.548-1.124-1.402-1.124-.838 0-1.265.365-1.265.89 0 .584.335.848 1.692 1.022 2.758.293 4.175.978 4.175 3.24 0 1.911-1.584 3.473-4.388 3.473-3.048 0-4.603-1.226-4.694-3.488M212.188 69.49h3.302V58.737h-3.302zM220.444 58.736h3.581l3.55 6.062v-6.062h2.777v10.755h-3.071l-4.046-6.754v6.754h-2.791zM237.131 61.113h-2.651v-2.377h8.256v2.377h-2.652v8.378h-2.953zM246.864 58.736h7.198v2.377h-4.226v1.85h3.366v2.196h-3.366v1.955h4.459v2.377h-7.43zM259.249 58.736h3.216V67.1h4.214v2.392h-7.43zM270.808 58.736h3.215V67.1h4.215v2.392h-7.43zM282.366 69.49h3.303V58.737h-3.303zM289.797 64.172v-.117c0-3.176 2.369-5.319 5.552-5.319 2.502 0 4.722 1.123 4.929 3.833h-3.005c-.148-.976-.785-1.486-1.91-1.486-1.495 0-2.398 1.137-2.398 3.016v.117c0 1.69.636 3.002 2.472 3.002 1.48 0 2.044-.744 2.102-1.574h-1.983V63.56h4.974v1.282c0 2.652-1.762 4.649-5.181 4.649-3.598 0-5.552-2.2-5.552-5.32M305.484 58.736h7.198v2.377h-4.226v1.85h3.366v2.196h-3.366v1.955h4.459v2.377h-7.43zM317.043 58.736h3.581l3.55 6.062v-6.062h2.777v10.755h-3.071l-4.046-6.754v6.754h-2.791zM331.079 64.172v-.117c0-3.205 2.371-5.319 5.549-5.319 2.827 0 4.789 1.254 5.047 4.007h-3.208c-.122-1.062-.729-1.646-1.824-1.646-1.398 0-2.28 1.05-2.28 2.944v.116c0 1.88.836 2.944 2.325 2.944 1.095 0 1.87-.553 2.023-1.705h3.1c-.212 2.696-2.25 4.095-5.062 4.095-3.8 0-5.67-2.128-5.67-5.32M345.94 58.736h7.198v2.377h-4.226v1.85h3.366v2.196h-3.366v1.955h4.459v2.377h-7.43z" mask="url(#d)"/>
    </g>
</svg>
