<?xml version="1.0" encoding="utf-8"?>
<!-- Generator: Adobe Illustrator 21.1.0, SVG Export Plug-In . SVG Version: 6.00 Build 0)  -->
<svg version="1.1" id="Ebene_1" xmlns="http://www.w3.org/2000/svg" xmlns:xlink="http://www.w3.org/1999/xlink" x="0px" y="0px"
	 viewBox="0 0 76.1 39" style="enable-background:new 0 0 76.1 39;" xml:space="preserve">
<style type="text/css">
	.st0{fill:#003469;}
</style>
<g>
	<g>
		<g>
			<g>
				<g>
					<path class="st0" d="M38.1,39c21,0,38.1-8.7,38.1-19.5C76.1,8.7,59.1,0,38.1,0C17,0,0,8.7,0,19.5C0,30.3,17,39,38.1,39z
						 M45.2,29.4c-0.6,1.5-1.7,4.6-4.2,5.9c-0.8,0.4-1.7,0.6-2.5,0.6c-0.2,0-0.3,0-0.4,0c-7,0-13.6-1-19-2.6c0,0-0.2-0.1-0.2-0.1
						c-0.5-0.2-0.8-0.4-0.8-0.7c0-0.3,0.1-0.4,0.3-0.6c0.1-0.1,0.2-0.2,0.3-0.3C20,30.5,23.8,27.7,31,25c2.5-1,5.7-2.2,9-2.9
						C41.8,21.7,49,20.6,45.2,29.4z M64.5,9.8c0.1-0.2,0.3-0.4,0.6-0.5c0.2,0,0.4,0,0.8,0.3c4.5,2.8,7.1,6.2,7.1,9.9
						c0,6.7-8.6,12.5-21,15c-0.8,0.2-1.3,0.2-1.5,0c-0.1-0.1-0.2-0.3,0-0.6c0.1-0.1,0.2-0.3,0.3-0.5c6.7-7.9,11.9-19.6,13.3-23
						C64.3,10.2,64.4,9.9,64.5,9.8z M31,9.5c0.6-1.5,1.7-4.6,4.2-5.9C36,3.3,37,3.1,37.8,3.1c0.2,0,0.3,0,0.4,0c7,0,13.6,1,19,2.6
						c0,0,0.2,0.1,0.2,0.1c0.5,0.2,0.8,0.4,0.8,0.7c0,0.3-0.1,0.4-0.3,0.6c-0.1,0.1-0.2,0.2-0.3,0.3c-1.3,1.1-5.1,3.8-12.2,6.6
						c-2.5,1-5.7,2.2-9,2.9C34.4,17.2,27.2,18.3,31,9.5z M24.1,4.5c0.8-0.2,1.3-0.2,1.5,0c0.1,0.1,0.1,0.3,0,0.6
						c-0.1,0.1-0.2,0.3-0.3,0.5c-6.7,7.9-11.9,19.6-13.3,23c-0.1,0.2-0.2,0.5-0.3,0.6c-0.1,0.2-0.3,0.4-0.6,0.5
						c-0.2,0-0.4,0-0.8-0.3c-4.5-2.8-7.1-6.2-7.1-9.9C3.1,12.8,11.8,7,24.1,4.5z"/>
				</g>
			</g>
		</g>
	</g>
</g>
</svg>
