<svg id="svg" xmlns="http://www.w3.org/2000/svg" xmlns:xlink="http://www.w3.org/1999/xlink" width="400" height="250" viewBox="0, 0, 400,250"><g id="svgg"><path id="path0" d="M246.125 65.001 C 245.776 65.133,244.685 67.200,242.512 71.845 L 239.399 78.500 233.080 78.500 L 226.761 78.500 225.520 81.132 C 224.837 82.579,224.266 83.814,224.250 83.875 C 224.234 83.936,223.624 85.255,222.894 86.806 C 219.877 93.212,219.166 94.730,218.177 96.875 C 217.607 98.112,217.043 99.194,216.924 99.278 C 216.805 99.362,216.730 99.509,216.759 99.605 C 216.811 99.782,214.289 105.276,211.211 111.690 C 210.270 113.651,209.500 115.305,209.500 115.365 C 209.500 115.424,208.707 117.139,207.737 119.174 C 205.345 124.197,205.191 124.524,203.903 127.313 C 202.598 130.138,202.799 130.036,201.076 128.735 C 197.133 125.758,193.938 122.467,189.198 116.500 C 187.833 114.781,186.285 112.869,185.758 112.250 C 185.232 111.631,183.994 110.169,183.008 109.000 C 182.021 107.831,180.350 105.939,179.295 104.795 C 178.239 103.651,177.339 102.615,177.296 102.494 C 177.230 102.313,174.277 99.652,170.648 96.505 C 170.248 96.159,169.641 95.622,169.299 95.313 C 168.957 95.003,168.608 94.750,168.523 94.750 C 168.439 94.750,168.090 94.497,167.747 94.188 C 167.405 93.878,166.225 93.013,165.125 92.264 C 164.025 91.516,163.069 90.840,163.000 90.762 C 162.931 90.684,162.453 90.399,161.938 90.128 C 161.422 89.858,161.000 89.549,161.000 89.443 C 161.000 89.337,160.876 89.250,160.725 89.250 C 160.574 89.250,159.421 88.647,158.163 87.910 C 156.904 87.173,154.750 86.094,153.375 85.512 C 152.000 84.930,150.537 84.305,150.125 84.124 C 149.713 83.942,148.925 83.656,148.375 83.489 C 147.825 83.322,147.217 83.059,147.024 82.905 C 146.831 82.751,146.634 82.653,146.587 82.688 C 146.539 82.722,146.472 82.741,146.438 82.731 C 146.403 82.720,146.206 82.678,146.000 82.636 C 145.794 82.595,144.838 82.313,143.875 82.011 C 142.912 81.708,141.844 81.410,141.500 81.348 C 141.156 81.286,140.706 81.173,140.500 81.095 C 140.294 81.018,139.844 80.903,139.500 80.838 C 139.156 80.774,138.369 80.604,137.750 80.462 C 137.131 80.320,136.287 80.152,135.875 80.089 C 135.463 80.026,134.506 79.868,133.750 79.739 C 128.476 78.833,119.823 78.516,111.375 78.919 L 107.875 79.085 106.772 81.355 C 106.165 82.604,105.642 83.737,105.609 83.875 C 105.546 84.137,100.825 94.147,100.136 95.478 C 99.918 95.900,99.762 96.274,99.789 96.310 C 99.816 96.346,99.331 97.388,98.712 98.625 C 98.093 99.862,97.201 101.719,96.731 102.750 C 96.260 103.781,95.791 104.662,95.688 104.708 C 95.584 104.754,95.500 104.931,95.500 105.101 C 95.500 105.375,90.551 116.027,89.724 117.534 C 89.545 117.859,89.377 118.237,89.349 118.375 C 89.322 118.513,88.371 120.537,87.236 122.875 C 86.101 125.213,85.145 127.237,85.111 127.375 C 85.048 127.629,84.003 129.855,80.768 136.625 C 79.783 138.688,78.983 140.404,78.990 140.439 C 78.998 140.474,78.532 141.430,77.955 142.564 C 77.379 143.697,76.881 144.738,76.849 144.875 C 76.777 145.187,61.793 176.957,60.990 178.500 C 60.667 179.119,60.381 179.738,60.352 179.875 C 60.309 180.086,58.393 184.238,58.074 184.813 C 58.017 184.916,71.365 185.000,87.735 185.000 C 110.556 185.000,117.500 184.931,117.500 184.703 C 117.500 184.397,119.567 179.765,121.808 175.048 C 122.506 173.578,123.105 172.262,123.139 172.125 C 123.261 171.625,126.783 164.136,127.043 163.823 C 127.191 163.645,127.239 163.500,127.151 163.500 C 127.063 163.500,127.296 162.909,127.668 162.188 C 128.041 161.466,128.369 160.762,128.398 160.625 C 128.460 160.333,131.667 153.363,132.078 152.625 C 132.232 152.350,132.361 152.065,132.366 151.992 C 132.380 151.778,133.348 149.637,133.493 149.500 C 133.566 149.431,133.648 149.251,133.676 149.098 C 133.703 148.946,134.312 147.596,135.028 146.098 C 135.744 144.601,136.340 143.312,136.353 143.235 C 136.365 143.158,136.925 141.892,137.597 140.422 L 138.820 137.750 139.722 137.763 C 140.930 137.781,145.448 138.584,146.250 138.923 C 146.456 139.010,146.709 139.106,146.813 139.135 C 146.916 139.164,147.028 139.210,147.063 139.237 C 147.097 139.265,147.379 139.335,147.690 139.392 C 148.909 139.620,155.118 142.939,155.559 143.600 C 155.660 143.751,155.744 143.785,155.746 143.675 C 155.763 142.792,174.750 158.094,174.750 158.991 C 174.750 159.091,174.965 159.275,175.228 159.399 C 175.491 159.523,176.601 160.469,177.695 161.500 C 178.789 162.531,180.278 163.881,181.004 164.500 C 181.730 165.119,182.448 165.738,182.600 165.875 C 184.001 167.147,189.762 171.500,191.015 172.232 C 192.602 173.161,195.653 175.008,195.885 175.181 C 196.027 175.288,196.646 175.610,197.260 175.897 C 200.355 177.347,200.894 177.592,201.125 177.649 C 201.262 177.683,202.106 178.004,203.000 178.362 C 206.929 179.937,214.530 182.071,218.250 182.644 C 218.731 182.718,220.081 182.936,221.250 183.127 C 225.532 183.830,227.461 184.058,232.875 184.498 C 240.361 185.106,244.187 185.184,268.452 185.221 L 293.528 185.259 294.486 183.192 C 295.012 182.055,296.205 179.550,297.137 177.625 C 298.068 175.700,298.840 174.064,298.852 173.989 C 298.924 173.560,302.412 166.344,302.622 166.191 C 302.761 166.090,302.789 166.006,302.685 166.004 C 302.580 166.002,302.968 165.072,303.547 163.938 C 304.126 162.803,304.606 161.814,304.612 161.740 C 304.648 161.352,316.143 137.097,316.364 136.941 C 316.508 136.840,316.548 136.756,316.455 136.754 C 316.296 136.750,316.722 135.804,320.157 128.531 C 320.896 126.967,321.500 125.589,321.500 125.469 C 321.500 125.348,321.631 125.250,321.792 125.250 C 321.952 125.250,322.017 125.184,321.937 125.103 C 321.790 124.956,323.240 121.739,323.708 121.176 C 323.845 121.010,323.959 120.763,323.961 120.625 C 323.966 120.241,325.592 116.899,325.875 116.691 C 326.012 116.590,326.051 116.506,325.961 116.504 C 325.817 116.500,330.362 106.633,331.265 104.987 C 331.450 104.651,331.623 104.263,331.650 104.125 C 331.677 103.987,332.155 102.919,332.712 101.750 C 336.751 93.272,343.458 78.875,343.397 78.814 C 343.356 78.773,335.264 78.734,325.415 78.727 C 308.009 78.715,306.895 78.667,307.560 77.952 C 307.733 77.765,307.901 77.481,307.933 77.319 C 307.966 77.157,309.224 74.353,310.730 71.088 C 312.237 67.823,313.409 65.055,313.336 64.937 C 313.173 64.674,246.827 64.737,246.125 65.001 M307.000 67.097 C 307.000 67.151,305.862 69.598,304.472 72.535 C 303.081 75.472,300.170 81.644,298.002 86.250 C 295.835 90.856,291.249 100.588,287.812 107.875 C 284.375 115.162,281.113 122.081,280.563 123.250 C 277.176 130.452,271.372 142.771,270.316 145.000 C 269.632 146.444,265.444 155.331,261.010 164.750 C 256.575 174.169,252.849 181.979,252.730 182.106 C 251.766 183.132,227.394 181.110,219.539 179.352 C 202.992 175.650,195.680 171.071,174.250 150.989 C 156.610 134.459,150.349 130.551,139.612 129.364 L 138.099 129.197 134.640 136.661 C 132.737 140.766,129.123 148.569,126.609 154.000 C 124.095 159.431,120.291 167.644,118.156 172.250 L 114.275 180.625 88.370 180.689 L 62.466 180.752 62.640 180.189 C 62.737 179.879,63.125 179.006,63.504 178.250 C 64.074 177.112,74.561 154.901,77.374 148.875 C 77.823 147.912,80.129 143.019,82.499 138.000 C 84.868 132.981,87.120 128.200,87.502 127.375 C 87.884 126.550,89.875 122.331,91.926 118.000 C 93.977 113.669,98.736 103.583,102.500 95.587 L 109.344 81.050 113.735 80.865 C 137.693 79.856,156.220 86.143,172.125 100.680 C 176.443 104.627,180.017 108.589,186.735 116.875 C 198.949 131.942,207.297 137.099,215.865 134.867 C 222.229 133.210,223.743 131.080,233.629 109.875 C 237.733 101.074,248.000 78.759,248.000 78.642 C 248.000 78.564,246.642 78.500,244.982 78.500 C 242.455 78.500,241.976 78.440,242.044 78.132 C 242.089 77.930,243.250 75.344,244.625 72.386 L 247.125 67.008 277.063 67.004 C 293.528 67.002,307.000 67.044,307.000 67.097 M244.750 80.600 C 244.750 80.686,239.382 92.320,231.128 110.125 C 223.534 126.506,223.182 127.139,220.059 130.031 C 216.250 133.557,211.455 134.164,206.334 131.768 C 204.488 130.904,204.529 131.044,205.530 128.982 C 205.959 128.098,206.636 126.664,207.035 125.795 C 207.434 124.927,212.049 115.083,217.292 103.920 C 222.534 92.758,227.146 82.922,227.539 82.063 L 228.255 80.500 236.502 80.500 C 241.039 80.500,244.750 80.545,244.750 80.600 " stroke="none" fill="#1d1c1c" fill-rule="evenodd"></path><path id="path1" d="M228.298 80.818 C 228.153 80.992,227.420 82.483,226.669 84.130 C 225.919 85.777,224.661 88.475,223.875 90.125 C 223.089 91.775,222.132 93.800,221.748 94.625 C 221.365 95.450,220.364 97.569,219.525 99.335 C 218.686 101.100,218.000 102.575,218.000 102.613 C 218.000 102.651,217.282 104.188,216.404 106.029 C 215.526 107.869,213.094 113.031,211.000 117.500 C 208.906 121.969,206.643 126.795,205.971 128.224 C 205.300 129.654,204.750 130.860,204.750 130.905 C 204.750 131.706,210.231 133.065,213.020 132.955 C 219.849 132.686,222.228 129.587,231.801 108.500 C 232.082 107.881,232.761 106.419,233.310 105.250 C 233.859 104.081,234.846 101.944,235.503 100.500 C 236.161 99.056,237.566 96.019,238.627 93.750 C 239.687 91.481,241.036 88.556,241.624 87.250 C 242.213 85.944,243.100 84.010,243.597 82.954 C 244.094 81.897,244.500 80.913,244.500 80.766 C 244.500 80.350,228.645 80.400,228.298 80.818 " stroke="none" fill="#eb431d" fill-rule="evenodd"></path><path id="path2" d="M245.827 70.188 C 245.063 71.803,243.897 74.278,243.235 75.688 L 242.033 78.250 245.141 78.250 C 246.851 78.250,248.250 78.327,248.250 78.420 C 248.250 78.813,228.594 121.119,226.609 125.000 C 218.498 140.855,204.357 138.727,188.500 119.263 C 173.768 101.181,166.530 94.644,154.745 88.778 C 142.513 82.689,125.705 79.762,111.000 81.158 L 109.375 81.312 102.942 94.969 C 99.403 102.480,93.485 115.037,89.791 122.875 C 86.096 130.713,78.501 146.827,72.912 158.684 C 67.323 170.541,62.750 180.301,62.750 180.371 C 62.750 180.442,74.318 180.500,88.457 180.500 L 114.163 180.500 117.565 173.188 C 121.982 163.694,126.473 153.993,132.755 140.375 C 135.546 134.325,137.898 129.295,137.980 129.197 C 138.063 129.099,139.254 129.178,140.628 129.372 C 147.075 130.283,152.796 132.796,159.148 137.505 C 162.929 140.309,165.943 142.975,175.373 151.858 C 181.376 157.514,182.110 158.188,185.502 161.159 C 203.310 176.764,218.875 181.875,248.590 181.875 L 252.805 181.875 254.615 178.000 C 256.790 173.345,261.658 163.005,271.623 141.875 C 275.709 133.213,281.729 120.444,285.002 113.500 C 288.275 106.556,294.459 93.450,298.744 84.375 C 303.030 75.300,306.596 67.734,306.670 67.563 C 306.776 67.314,300.749 67.250,277.009 67.250 L 247.215 67.250 245.827 70.188 " stroke="none" fill="#fbfbfb" fill-rule="evenodd"></path><path id="path3" d="M247.164 67.188 C 247.059 67.357,268.031 67.356,296.375 67.185 C 302.288 67.149,293.660 67.093,277.202 67.060 C 260.745 67.027,247.227 67.084,247.164 67.188 M117.323 80.936 C 118.257 80.984,119.719 80.983,120.573 80.935 C 121.427 80.886,120.662 80.847,118.875 80.847 C 117.088 80.848,116.389 80.887,117.323 80.936 M110.190 81.177 C 110.501 81.237,110.951 81.234,111.190 81.172 C 111.429 81.109,111.175 81.060,110.625 81.063 C 110.075 81.066,109.879 81.117,110.190 81.177 M125.563 81.172 C 125.803 81.235,126.197 81.235,126.438 81.172 C 126.678 81.109,126.481 81.058,126.000 81.058 C 125.519 81.058,125.322 81.109,125.563 81.172 M194.250 125.875 C 194.997 126.631,195.664 127.250,195.733 127.250 C 195.802 127.250,195.247 126.631,194.500 125.875 C 193.753 125.119,193.086 124.500,193.017 124.500 C 192.948 124.500,193.503 125.119,194.250 125.875 M139.063 137.922 C 139.303 137.985,139.697 137.985,139.938 137.922 C 140.178 137.859,139.981 137.808,139.500 137.808 C 139.019 137.808,138.822 137.859,139.063 137.922 M241.932 181.930 C 242.376 181.986,243.163 181.987,243.682 181.932 C 244.201 181.878,243.838 181.833,242.875 181.832 C 241.912 181.831,241.488 181.875,241.932 181.930 M249.570 182.184 C 250.227 182.236,251.240 182.235,251.820 182.183 C 252.400 182.130,251.863 182.088,250.625 182.089 C 249.387 182.090,248.913 182.132,249.570 182.184 " stroke="none" fill="#9f9e9e" fill-rule="evenodd"></path><path id="path4" d="M248.313 64.932 C 248.828 64.986,249.672 64.986,250.188 64.932 C 250.703 64.878,250.281 64.834,249.250 64.834 C 248.219 64.834,247.797 64.878,248.313 64.932 M242.875 78.414 C 245.253 78.597,248.251 78.610,248.251 78.438 C 248.250 78.334,246.816 78.270,245.063 78.294 C 243.309 78.318,242.325 78.372,242.875 78.414 M307.467 78.567 C 307.573 78.673,310.295 78.729,313.517 78.692 L 319.375 78.624 313.325 78.500 C 309.997 78.431,307.361 78.461,307.467 78.567 M114.066 80.929 C 114.446 80.987,115.008 80.985,115.316 80.926 C 115.623 80.867,115.313 80.820,114.625 80.822 C 113.938 80.823,113.686 80.872,114.066 80.929 M122.440 80.927 C 122.751 80.987,123.201 80.984,123.440 80.922 C 123.679 80.859,123.425 80.810,122.875 80.813 C 122.325 80.816,122.129 80.867,122.440 80.927 M174.750 103.375 C 176.051 104.681,177.171 105.750,177.240 105.750 C 177.309 105.750,176.301 104.681,175.000 103.375 C 173.699 102.069,172.579 101.000,172.510 101.000 C 172.441 101.000,173.449 102.069,174.750 103.375 M194.000 122.319 C 194.000 122.357,194.872 123.228,195.938 124.256 L 197.875 126.125 196.006 124.188 C 194.271 122.388,194.000 122.136,194.000 122.319 M211.688 133.181 C 212.134 133.236,212.866 133.236,213.313 133.181 C 213.759 133.125,213.394 133.080,212.500 133.080 C 211.606 133.080,211.241 133.125,211.688 133.181 M211.938 135.426 C 212.247 135.486,212.753 135.486,213.063 135.426 C 213.372 135.367,213.119 135.318,212.500 135.318 C 211.881 135.318,211.628 135.367,211.938 135.426 M169.000 146.125 C 169.466 146.606,169.904 147.000,169.973 147.000 C 170.042 147.000,169.716 146.606,169.250 146.125 C 168.784 145.644,168.346 145.250,168.277 145.250 C 168.208 145.250,168.534 145.644,169.000 146.125 M172.990 149.813 C 173.603 150.466,174.137 151.000,174.177 151.000 C 174.365 151.000,174.166 150.776,173.063 149.740 L 171.875 148.625 172.990 149.813 M177.500 154.125 C 177.966 154.606,178.404 155.000,178.473 155.000 C 178.542 155.000,178.216 154.606,177.750 154.125 C 177.284 153.644,176.846 153.250,176.777 153.250 C 176.708 153.250,177.034 153.644,177.500 154.125 M180.250 156.578 C 180.250 156.621,180.616 156.987,181.063 157.391 L 181.875 158.125 181.141 157.313 C 180.456 156.555,180.250 156.385,180.250 156.578 M175.500 159.578 C 175.500 159.621,175.866 159.987,176.313 160.391 L 177.125 161.125 176.391 160.313 C 175.706 159.555,175.500 159.385,175.500 159.578 M88.375 180.500 L 62.375 180.628 88.298 180.689 C 105.376 180.729,114.273 180.665,114.375 180.500 C 114.460 180.363,114.495 180.277,114.452 180.311 C 114.410 180.344,102.675 180.429,88.375 180.500 M240.063 181.922 C 240.303 181.985,240.697 181.985,240.938 181.922 C 241.178 181.859,240.981 181.808,240.500 181.808 C 240.019 181.808,239.822 181.859,240.063 181.922 M246.938 182.176 C 247.247 182.236,247.753 182.236,248.063 182.176 C 248.372 182.117,248.119 182.068,247.500 182.068 C 246.881 182.068,246.628 182.117,246.938 182.176 M236.688 184.926 C 236.997 184.986,237.503 184.986,237.813 184.926 C 238.122 184.867,237.869 184.818,237.250 184.818 C 236.631 184.818,236.378 184.867,236.688 184.926 " stroke="none" fill="#7c797c" fill-rule="evenodd"></path></g></svg>