<?xml version="1.0" encoding="utf-8"?>
<!-- Generator: Adobe Illustrator 19.0.1, SVG Export Plug-In . SVG Version: 6.00 Build 0)  -->
<svg version="1.1" id="Layer_1" xmlns="http://www.w3.org/2000/svg" xmlns:xlink="http://www.w3.org/1999/xlink" x="0px" y="0px"
	 viewBox="0 0 312 64" style="enable-background:new 0 0 312 64;" xml:space="preserve">
<style type="text/css">
	.st0{fill:#FFFFFF;}
	.st1{fill:#DC1928;}
	.st2{fill:#003359;}
	.st3{fill:#009FDA;}
	.st4{fill:#0077B5;}
	.st5{fill:#E52D27;}
	.st6{clip-path:url(#SVGID_2_);fill:#DB4E3F;}
	.st7{clip-path:url(#SVGID_4_);fill:#DB4E3F;}
</style>
<g>
	<g>
		<path class="st2" d="M64,61.4c0,1.4-1.1,2.6-2.6,2.6H2.6C1.1,64,0,62.9,0,61.4V2.6C0,1.1,1.1,0,2.6,0h58.9C62.9,0,64,1.1,64,2.6
			V61.4z"/>
		<path class="st0" d="M11.2,32c0,8.9,5.6,16.5,13.4,19.5V12.5C16.8,15.5,11.2,23.1,11.2,32"/>
		<path class="st0" d="M32,11.2c-0.6,0-1.1,0-1.7,0.1v1.5h0.1c7.9,0.1,14.3,6.1,14.3,13.5c-0.1,7.4-6.5,13.3-14.4,13.3v13.2
			c0.6,0,1.1,0.1,1.7,0.1c11.5,0,20.8-9.3,20.8-20.8C52.8,20.5,43.5,11.2,32,11.2"/>
	</g>
	<g>
		<polygon class="st3" points="224.1,31.4 224.1,31.4 224.1,31.4 		"/>
		<polygon class="st3" points="224.1,31.5 224.1,31.5 224.1,31.5 		"/>
		<polygon class="st3" points="229.6,32.5 229.5,32.5 229.6,32.5 229.6,32.5 		"/>
		<path class="st3" d="M220.8,45.1l-4-8.6c2.9-0.8,5-2.1,6.3-3.8l0,0c1.8,0.5,3.5,1,5.1,1.6L220.8,45.1L220.8,45.1z M247.1,18h-7.5
			L232,29c2.3,0.5,4.6,1.1,6.7,1.6l2.4-3.6l1,8.6c-1.8-0.5-3.6-1-5.5-1.5c-0.2,0-0.3-0.1-0.5-0.1c-0.2-0.1-0.5-0.1-0.7-0.2
			c-0.4-0.1-0.9-0.2-1.3-0.3l0,0c-1.5-0.3-3-0.7-4.5-1l0,0l-0.1,0c-1.8-0.4-3.5-0.7-5.4-1l0,0l0,0l0,0c-7.4-1.3-15.4-2.2-23.8-2.6
			l-4.6,17h7.7l3-10.9c0.8,0.1,1.7,0.2,2.5,0.2l4.4,10.7h15.5l6.3-8.9c2.9,1.3,5.5,2.7,7.8,4.2l0.6,4.7h8.1L247.1,18L247.1,18z"/>
		<path class="st3" d="M182.1,28.4l-4.7,17.4h7.7l4.7-17.4c-1.1,0-2.2,0-3.3,0C185.1,28.4,183.6,28.4,182.1,28.4L182.1,28.4z"/>
		<path class="st3" d="M199.1,24.7l1.7-6.5h-24.2l-1.8,6.5c3.8-0.2,7.7-0.3,11.7-0.3C190.8,24.4,195,24.5,199.1,24.7L199.1,24.7z"/>
		<path class="st3" d="M225.2,26.7c0-2.2-0.7-4.2-2.1-5.7c-1.9-1.9-4.9-2.9-9.5-2.9h-10.4l-1.8,6.7c8.4,0.5,16.5,1.5,23.9,2.8
			C225.2,27.3,225.2,27,225.2,26.7L225.2,26.7z"/>
		<path class="st3" d="M270.7,36.6c-1.8,1.8-3.5,2.8-5.9,2.8c-3.2,0-5.5-2.2-5.5-5.7c0-4.8,3.7-9.1,8.3-9.1c2.7,0,4.5,1.3,5.6,3.6
			l6.6-3.6c-1.7-4.3-5.6-7-11.2-7c-10.6,0-17.3,8.5-17.3,16.7c0,0.1,0,0.3,0,0.4c0,1.6,0.3,3.1,0.9,4.4c1.8,4.6,6.4,7.3,12.2,7.3
			c0.3,0,0.6,0,0.9,0c1.3-0.1,2.6-0.3,3.7-0.6c2.9-0.8,5.2-2.5,7-4.6L270.7,36.6L270.7,36.6z"/>
		<polygon class="st3" points="308.3,18.1 299.4,18.1 287.3,31.6 290.9,18.1 283.2,18.1 275.8,45.9 283.5,45.9 287.3,31.6 
			294.3,45.9 302.6,45.9 295.6,31.6 308.3,18.1 		"/>
	</g>
	<g>
		<path class="st2" d="M171.7,21.1c-1.9-1.9-4.9-2.9-9.5-2.9h-10.4l-2.5,9.2c7.6-1.3,15.8-2.2,24.4-2.6
			C173.3,23.3,172.7,22.1,171.7,21.1L171.7,21.1z"/>
		<path class="st2" d="M173.6,28.8c-7.6,0.4-14.8,1.2-21.6,2.2l0,0c-0.2,0-0.3,0-0.5,0.1c-0.5,0.1-1,0.2-1.4,0.2
			c-0.3,0-0.5,0.1-0.8,0.1c-0.4,0.1-0.8,0.1-1.2,0.2l0,0c-0.1,0-0.1,0-0.2,0c-0.2,0-0.5,0.1-0.7,0.1c-0.6,0.1-1.2,0.2-1.9,0.3
			c-0.1,0-0.2,0-0.3,0.1c-0.6,0.1-1.2,0.2-1.8,0.4c-0.2,0-0.5,0.1-0.7,0.1c-0.4,0.1-0.8,0.2-1.2,0.3l-0.1,0
			c-0.2,0.1-0.5,0.1-0.7,0.2c-0.4,0.1-0.9,0.2-1.3,0.3c-0.2,0.1-0.4,0.1-0.6,0.1c-0.6,0.1-1.2,0.3-1.8,0.4c-0.1,0-0.3,0.1-0.4,0.1
			c-0.5,0.1-1,0.3-1.4,0.4c-0.2,0.1-0.4,0.1-0.7,0.2c-0.1,0-0.2,0.1-0.3,0.1v0c-0.2,0.1-0.4,0.1-0.6,0.2h0c-0.1,0-0.2,0-0.3,0.1
			c-0.2,0.1-0.4,0.1-0.7,0.2c-0.4,0.1-0.8,0.2-1.3,0.4c-0.2,0-0.3,0.1-0.5,0.1c-0.6,0.2-1.1,0.3-1.7,0.5c-0.2,0.1-0.3,0.1-0.5,0.2
			c-0.4,0.1-0.8,0.3-1.2,0.4c-0.2,0.1-0.4,0.1-0.6,0.2c-0.1,0-0.2,0.1-0.2,0.1l6.6-10.1l0.5,3.9c2.3-0.6,4.8-1.3,7.3-1.8L138.9,18
			h-7.5l-19.3,27.9h8.3c3.5-3,8.2-5.8,13.7-8.1l1,8.1h8.1l-1.7-10.9c2-0.6,4-1.2,6.1-1.8l-3.4,12.7h7.7l2.6-9.5
			c1-0.2,2.1-0.3,3.1-0.4l4.1,9.9h8.1l-4.3-9.3C170.3,35.2,172.9,32.4,173.6,28.8L173.6,28.8z"/>
		<polygon class="st2" points="122.8,24.9 124.5,18.2 100.3,18.2 98.5,24.9 106.8,24.9 101.1,45.9 108.8,45.9 114.4,24.9 
			122.8,24.9 		"/>
		<path class="st2" d="M88.3,24.1c3.1-0.4,6.2,0.3,7.9,0.8l1.7-6.2c-1.4-0.5-4.2-1.1-8.3-1c-6.8,0.1-11.8,3.9-11.8,9.4
			c0,4.1,2.8,6,7.2,7.6c3.9,1.5,4.6,2.1,4.6,3.1c0,1.3-1.3,2.1-3.1,2.1c-0.5,0-1,0-1.5-0.1l0,0l-0.1,0c-0.3,0-0.6-0.1-0.9-0.2
			C81.4,39.1,79,38,77,36.6l-1.8,6.5c2.8,2.1,6.5,3.2,10.8,3.2c6.9,0,11.8-3.9,11.8-9.6c0-4.2-2.9-6.1-7.2-7.7
			c-3.8-1.5-4.6-1.9-4.6-3C85.9,25.1,86.8,24.3,88.3,24.1L88.3,24.1L88.3,24.1L88.3,24.1z"/>
	</g>
</g>
</svg>
